<svg version="1.0" xmlns="http://www.w3.org/2000/svg"
 width="400.000000pt" height="400.000000pt" viewBox="0 0 400.000000 400.000000"
 preserveAspectRatio="xMidYMid meet">
<g transform="translate(0.000000,400.000000) scale(0.100000,-0.100000)"
fill="#000000" stroke="none">
<path d="M2839 2777 c-24 -30 -57 -80 -74 -110 l-29 -55 68 -142 c74 -154 116
-268 116 -312 0 -25 -7 -32 -47 -49 -63 -27 -288 -83 -436 -108 -596 -102
-1084 7 -1229 275 -72 132 -74 240 -11 500 4 17 -2 24 -28 33 -17 6 -35 11
-39 11 -14 0 -73 -165 -91 -255 -23 -110 -24 -266 -4 -354 56 -236 242 -396
545 -468 109 -26 127 -28 365 -27 266 0 337 7 573 60 136 30 311 85 397 124
54 24 64 33 92 86 108 203 81 449 -86 773 l-38 74 -44 -56z"/>
<path d="M1932 1267 l-72 -92 33 -30 c203 -181 185 -168 212 -151 23 15 89 92
123 144 14 22 13 25 -29 68 -54 55 -173 154 -185 154 -5 0 -42 -42 -82 -93z"/>
</g>
</svg>
