<svg version="1.0" xmlns="http://www.w3.org/2000/svg"
 width="400.000000pt" height="400.000000pt" viewBox="0 0 400.000000 400.000000"
 preserveAspectRatio="xMidYMid meet">

<g transform="translate(0.000000,400.000000) scale(0.100000,-0.100000)"
fill="#000000" stroke="none">
<path d="M1774 2575 c-20 -36 -42 -87 -50 -112 -19 -62 -9 -76 103 -141 230
-132 391 -290 472 -462 32 -68 47 -135 37 -168 -15 -46 -233 -135 -370 -152
-227 -27 -357 54 -382 239 l-7 52 -36 -3 -36 -3 0 -135 c0 -108 4 -145 19
-185 52 -137 149 -205 303 -213 149 -8 282 26 464 119 90 46 98 53 117 97 54
125 72 276 48 392 -18 88 -86 229 -151 315 -57 76 -179 200 -270 274 -78 65
-202 151 -215 151 -5 0 -25 -29 -46 -65z"/>
</g>
</svg>
