<svg version="1.0" xmlns="http://www.w3.org/2000/svg"
 width="400.000000pt" height="400.000000pt" viewBox="0 0 400.000000 400.000000"
 preserveAspectRatio="xMidYMid meet">

<g transform="translate(0.000000,400.000000) scale(0.100000,-0.100000)"
fill="#000000" stroke="none">
<path d="M2298 3398 c-24 -29 -59 -72 -76 -95 l-32 -41 87 -75 c49 -41 97 -84
107 -96 11 -11 25 -21 32 -21 14 0 95 88 132 143 l25 38 -44 45 c-46 47 -172
154 -182 154 -3 0 -25 -24 -49 -52z"/>
<path d="M2660 2792 c-144 -48 -251 -123 -401 -280 -84 -88 -231 -277 -284
-367 -9 -14 -16 4 -34 90 -31 152 -115 355 -146 355 -13 0 -72 -74 -119 -148
l-27 -43 65 -132 c72 -145 110 -265 128 -399 l12 -88 -49 -71 c-83 -121 -233
-227 -371 -263 -254 -66 -506 82 -565 330 -27 116 -6 297 51 430 11 26 19 51
17 57 -1 5 -17 15 -35 23 l-32 13 -34 -67 c-72 -146 -100 -271 -101 -457 0
-215 45 -345 161 -461 109 -109 231 -150 421 -142 183 8 325 71 461 202 94 91
142 183 178 346 14 63 27 116 29 118 1 2 43 -4 91 -13 283 -51 623 -16 822 84
155 78 255 201 297 366 53 210 -36 421 -213 503 -76 35 -237 42 -322 14z m216
-247 c99 -49 172 -147 182 -245 4 -44 2 -48 -34 -79 -79 -64 -255 -134 -414
-162 -133 -24 -479 -11 -537 20 -29 16 181 255 310 353 187 140 357 180 493
113z"/>
</g>
</svg>
