<svg version="1.0" xmlns="http://www.w3.org/2000/svg"
 width="400.000000pt" height="400.000000pt" viewBox="0 0 400.000000 400.000000"
 preserveAspectRatio="xMidYMid meet">

<g transform="translate(0.000000,400.000000) scale(0.100000,-0.100000)"
fill="#000000" stroke="none">
<path d="M1769 3251 c-8 -10 -42 -54 -75 -98 l-62 -79 115 -98 115 -98 47 50
c75 80 104 127 93 149 -10 18 -179 170 -206 185 -9 5 -19 1 -27 -11z"/>
<path d="M1776 2578 c-19 -35 -42 -85 -51 -112 -15 -47 -15 -51 3 -75 10 -14
48 -42 84 -62 164 -90 332 -230 413 -344 81 -113 128 -239 110 -294 -8 -28
-184 -113 -280 -136 -42 -11 -108 -18 -165 -17 -150 0 -227 38 -274 134 -14
29 -28 77 -32 106 l-7 53 -36 -3 -36 -3 -3 -113 c-5 -205 45 -316 172 -381 56
-30 79 -35 153 -39 149 -8 282 26 464 119 90 46 98 53 117 97 54 126 72 277
48 392 -48 226 -255 482 -555 689 -41 28 -78 51 -82 51 -5 0 -24 -28 -43 -62z"/>
</g>
</svg>
