<svg version="1.0" xmlns="http://www.w3.org/2000/svg"
 width="400.000000pt" height="400.000000pt" viewBox="0 0 400.000000 400.000000"
 preserveAspectRatio="xMidYMid meet">

<g transform="translate(0.000000,400.000000) scale(0.100000,-0.100000)"
fill="#000000" stroke="none">
<path d="M2366 3014 l-75 -95 112 -99 112 -98 43 42 c49 46 112 128 112 144 0
12 -180 176 -211 192 -15 9 -29 -5 -93 -86z"/>
<path d="M2560 2500 c-97 -18 -237 -138 -285 -242 -87 -190 -70 -390 41 -488
89 -77 199 -104 426 -105 157 0 167 -1 172 -20 8 -29 -21 -54 -111 -96 -266
-124 -750 -199 -1091 -170 -255 22 -413 82 -533 201 -142 140 -179 303 -119
530 11 41 20 80 20 85 0 6 -15 16 -32 23 -41 15 -46 9 -88 -99 -83 -217 -79
-470 12 -642 43 -80 146 -184 232 -232 169 -94 356 -129 661 -122 230 5 340
20 592 82 249 62 447 138 510 197 63 59 89 199 73 388 -29 326 -180 636 -341
693 -58 21 -96 25 -139 17z m106 -275 c48 -28 101 -85 138 -147 26 -45 66
-150 66 -175 0 -26 -247 -11 -364 23 -167 48 -218 153 -123 252 78 82 190 100
283 47z"/>
</g>
</svg>
