<svg version="1.0" xmlns="http://www.w3.org/2000/svg"
 width="400.000000pt" height="400.000000pt" viewBox="0 0 400.000000 400.000000"
 preserveAspectRatio="xMidYMid meet">

<g transform="translate(0.000000,400.000000) scale(0.100000,-0.100000)"
fill="#000000" stroke="none">
<path d="M1643 3637 c-16 -18 -52 -61 -78 -96 l-48 -64 35 -31 c19 -17 70 -62
112 -100 l77 -69 36 34 c20 19 56 61 80 94 l45 60 -75 71 c-41 39 -93 85 -115
102 l-39 31 -30 -32z"/>
<path d="M1743 3060 c-152 -36 -289 -190 -338 -381 -12 -45 -16 -90 -13 -149
7 -133 55 -212 205 -330 l71 -57 -55 -54 c-171 -169 -255 -356 -254 -568 1
-377 237 -623 658 -686 178 -27 374 -15 484 29 31 12 114 62 185 109 166 112
166 111 158 131 -3 9 -7 16 -8 16 0 0 -48 -9 -106 -20 -156 -30 -459 -38 -609
-16 -364 54 -593 221 -631 461 -25 159 70 317 277 455 97 65 341 186 534 265
l147 60 37 124 c20 67 34 125 32 128 -7 6 -239 -89 -430 -177 -98 -45 -171
-72 -192 -72 -70 0 -260 130 -323 221 -64 92 -52 163 37 220 96 62 150 76 306
76 126 0 147 -3 215 -27 69 -24 76 -25 88 -10 6 8 12 20 12 26 0 18 -154 163
-198 185 -87 44 -205 61 -289 41z"/>
</g>
</svg>
