<svg version="1.0" xmlns="http://www.w3.org/2000/svg"
 width="400.000000pt" height="400.000000pt" viewBox="0 0 400.000000 400.000000"
 preserveAspectRatio="xMidYMid meet">

<g transform="translate(0.000000,400.000000) scale(0.100000,-0.100000)"
fill="#000000" stroke="none">
<path d="M1825 2648 c-4 -13 -25 -161 -25 -179 0 -5 -21 -32 -47 -61 -72 -79
-116 -144 -161 -233 -58 -116 -83 -198 -89 -295 -13 -213 79 -396 234 -467 76
-35 217 -43 313 -19 136 35 258 123 303 219 82 173 86 426 9 572 -36 69 -218
248 -379 373 -73 56 -137 102 -143 102 -6 0 -13 -6 -15 -12z m153 -381 c196
-128 332 -295 332 -409 0 -44 -4 -53 -42 -91 -79 -78 -222 -137 -333 -137
-159 0 -304 111 -313 240 -2 30 1 73 7 95 14 52 74 151 126 207 50 53 142 138
150 138 4 0 37 -20 73 -43z"/>
</g>
</svg>
