<svg version="1.0" xmlns="http://www.w3.org/2000/svg"
 width="400.000000pt" height="400.000000pt" viewBox="0 0 400.000000 400.000000"
 preserveAspectRatio="xMidYMid meet">

<g transform="translate(0.000000,400.000000) scale(0.100000,-0.100000)"
fill="#000000" stroke="none">
<path d="M1485 3016 c-155 -41 -245 -125 -280 -261 l-15 -60 56 -153 c31 -84
61 -151 67 -149 6 2 23 36 37 76 l27 73 -19 81 c-22 95 -19 100 71 145 52 25
64 27 181 26 69 0 154 -6 190 -13 75 -14 300 -81 300 -90 0 -3 -37 -17 -82
-31 -341 -102 -629 -363 -724 -655 -35 -106 -44 -310 -20 -425 43 -205 173
-371 366 -469 160 -82 316 -115 535 -115 214 0 330 18 402 61 98 59 272 197
262 207 -4 4 -60 0 -125 -9 -531 -71 -948 16 -1171 244 -140 144 -183 356
-103 517 42 85 151 197 265 273 98 64 290 159 405 199 99 34 335 96 432 112
l67 12 55 93 c31 51 56 96 56 100 0 3 -35 3 -77 0 -94 -8 -264 9 -342 35 -31
10 -119 42 -196 70 -272 101 -496 140 -620 106z"/>
</g>
</svg>
