<svg version="1.0" xmlns="http://www.w3.org/2000/svg"
 width="400.000000pt" height="400.000000pt" viewBox="0 0 400.000000 400.000000"
 preserveAspectRatio="xMidYMid meet">

<g transform="translate(0.000000,400.000000) scale(0.100000,-0.100000)"
fill="#000000" stroke="none">
<path d="M1902 2355 c-170 -66 -292 -201 -309 -344 -11 -97 53 -193 160 -237
45 -18 61 -34 34 -34 -25 0 -90 -65 -134 -133 -64 -99 -54 -107 64 -48 154 77
359 138 529 156 l61 7 47 95 c25 52 44 98 42 102 -3 4 -45 2 -93 -5 -136 -20
-280 -17 -352 5 -122 38 -191 99 -191 169 0 80 205 155 286 104 16 -11 43 -45
60 -76 16 -31 32 -56 36 -56 14 0 69 86 79 124 32 117 -44 197 -187 196 -48
-1 -88 -8 -132 -25z"/>
</g>
</svg>
