<svg version="1.0" xmlns="http://www.w3.org/2000/svg"
 width="400.000000pt" height="400.000000pt" viewBox="0 0 400.000000 400.000000"
 preserveAspectRatio="xMidYMid meet">

<g transform="translate(0.000000,400.000000) scale(0.100000,-0.100000)"
fill="#000000" stroke="none">
<path d="M1485 3016 c-155 -41 -245 -125 -280 -261 l-15 -60 56 -153 c31 -84
61 -151 67 -149 6 2 23 36 37 76 l27 73 -19 81 c-22 95 -19 100 71 145 52 25
64 27 181 26 69 0 154 -6 190 -13 75 -14 300 -81 300 -90 0 -3 -37 -17 -82
-31 -341 -102 -629 -363 -724 -655 -35 -106 -44 -310 -20 -425 43 -205 173
-371 366 -469 160 -82 316 -115 535 -115 214 0 330 18 402 61 98 59 272 197
262 207 -4 4 -60 0 -125 -9 -531 -71 -948 16 -1171 244 -120 123 -172 309
-128 457 19 66 100 180 170 240 125 108 339 227 525 292 99 34 335 96 432 112
l67 12 55 93 c31 51 56 95 56 97 0 2 -66 4 -148 4 -170 2 -233 16 -467 104
-270 101 -495 140 -620 106z"/>
<path d="M2005 1981 c-38 -49 -70 -94 -70 -99 0 -5 48 -50 107 -101 88 -75
111 -90 125 -82 19 9 82 82 120 137 l22 31 -77 75 c-81 79 -139 128 -150 128
-4 0 -38 -40 -77 -89z"/>
</g>
</svg>
