<svg version="1.0" xmlns="http://www.w3.org/2000/svg"
 width="400.000000pt" height="400.000000pt" viewBox="0 0 400.000000 400.000000"
 preserveAspectRatio="xMidYMid meet">

<g transform="translate(0.000000,400.000000) scale(0.100000,-0.100000)"
fill="#000000" stroke="none">
<path d="M2553 3067 c-81 -84 -91 -126 -75 -300 26 -264 44 -624 46 -877 1
-308 3 -301 -95 -350 -86 -44 -248 -96 -354 -114 -116 -20 -339 -21 -423 -1
-140 33 -250 114 -304 222 -29 59 -32 76 -36 177 -4 92 -1 125 17 189 11 42
21 79 21 81 0 2 -14 9 -31 15 -30 10 -31 10 -55 -43 -63 -137 -89 -358 -60
-496 51 -238 213 -369 500 -401 225 -25 534 36 750 149 l90 47 37 75 c21 42
51 112 66 155 l28 80 0 463 0 463 60 46 61 46 -66 131 c-65 129 -90 205 -90
272 0 49 -18 43 -87 -29z"/>
<path d="M2015 2678 c-65 -34 -175 -154 -219 -238 -35 -65 -40 -86 -44 -156
-5 -98 -14 -94 178 -94 150 0 169 -5 150 -40 -26 -48 -212 -104 -390 -117 -50
-3 -90 -9 -90 -12 0 -4 30 -24 66 -45 54 -32 78 -40 135 -44 221 -16 390 97
393 261 2 111 -51 148 -221 155 -62 2 -113 6 -113 9 0 2 6 16 14 32 32 60 157
148 195 136 15 -5 22 6 41 64 17 55 19 73 11 90 -15 27 -53 27 -106 -1z"/>
</g>
</svg>
