<svg version="1.0" xmlns="http://www.w3.org/2000/svg"
 width="400.000000pt" height="400.000000pt" viewBox="0 0 400.000000 400.000000"
 preserveAspectRatio="xMidYMid meet">

<g transform="translate(0.000000,400.000000) scale(0.100000,-0.100000)"
fill="#000000" stroke="none">
<path d="M1793 3387 c-27 -34 -62 -78 -76 -98 l-27 -36 57 -49 c32 -27 82 -71
111 -98 l53 -50 45 45 c25 24 62 66 82 93 l36 49 -75 71 c-41 39 -92 85 -115
103 l-41 32 -50 -62z"/>
<path d="M1459 2772 c-104 -28 -194 -96 -237 -179 -7 -12 -19 -48 -27 -80
l-15 -58 56 -153 c31 -85 61 -151 67 -149 6 2 23 36 37 76 l27 73 -19 81 c-22
95 -19 100 71 145 52 25 64 27 181 26 69 0 154 -6 190 -13 78 -14 300 -82 300
-91 0 -3 -36 -17 -81 -30 -109 -31 -279 -116 -375 -188 -165 -122 -294 -294
-350 -467 -35 -106 -44 -310 -20 -425 19 -91 78 -216 135 -288 107 -134 293
-234 518 -278 173 -34 535 -18 625 27 40 21 273 193 284 210 3 6 4 12 1 15 -2
3 -58 -2 -123 -11 -532 -71 -945 15 -1171 245 -140 143 -183 355 -103 516 78
159 311 331 607 448 101 40 378 117 490 135 l71 13 56 93 c31 51 56 96 56 100
0 3 -35 3 -77 0 -110 -10 -271 10 -368 45 -44 15 -138 49 -210 75 -265 95
-462 124 -596 87z"/>
</g>
</svg>
