<svg version="1.0" xmlns="http://www.w3.org/2000/svg"
 width="400.000000pt" height="400.000000pt" viewBox="0 0 400.000000 400.000000"
 preserveAspectRatio="xMidYMid meet">

<g transform="translate(0.000000,400.000000) scale(0.100000,-0.100000)"
fill="#000000" stroke="none">
<path d="M2422 3076 c-33 -36 -66 -81 -72 -102 -15 -43 -10 -201 14 -544 23
-318 36 -613 36 -810 l-1 -175 -28 -38 c-83 -110 -293 -217 -456 -232 -243
-24 -438 129 -475 372 -14 90 -1 192 40 316 17 49 29 91 28 92 -2 1 -17 7 -35
13 l-32 11 -39 -102 c-67 -173 -77 -223 -76 -392 0 -133 3 -159 26 -227 76
-228 246 -347 499 -348 253 0 549 170 619 357 36 96 69 251 80 373 10 109 -1
748 -15 891 l-6 56 55 42 c80 62 82 65 57 100 -61 85 -141 303 -141 383 0 15
-4 28 -9 28 -5 0 -36 -29 -69 -64z"/>
</g>
</svg>
