<svg version="1.0" xmlns="http://www.w3.org/2000/svg"
 width="400.000000pt" height="400.000000pt" viewBox="0 0 400.000000 400.000000"
 preserveAspectRatio="xMidYMid meet">

<g transform="translate(0.000000,400.000000) scale(0.100000,-0.100000)"
fill="#000000" stroke="none">
<path d="M1883 2915 c-64 -32 -117 -90 -151 -164 -21 -46 -25 -70 -24 -136 0
-44 6 -111 12 -149 l11 -68 -50 -53 c-80 -84 -140 -219 -162 -364 -21 -140 -9
-194 169 -743 81 -250 121 -401 130 -496 6 -59 10 -67 29 -70 24 -4 25 -2 47
110 36 176 23 255 -114 723 -97 331 -119 419 -126 515 -6 67 -4 78 15 102 32
40 115 76 205 89 86 13 308 1 487 -26 52 -8 99 -15 105 -15 6 0 24 28 40 63
23 51 29 76 29 137 0 65 -4 84 -33 143 -76 155 -241 338 -351 390 -93 44 -195
49 -268 12z m191 -230 c30 -14 77 -46 104 -70 63 -57 165 -182 158 -193 -3 -5
-37 -2 -78 6 -94 19 -365 21 -427 3 -23 -7 -45 -11 -46 -9 -2 2 5 35 16 73 10
38 19 100 19 137 0 66 1 68 28 74 15 3 32 8 37 10 28 11 139 -7 189 -31z"/>
</g>
</svg>
