<svg version="1.0" xmlns="http://www.w3.org/2000/svg"
 width="400.000000pt" height="400.000000pt" viewBox="0 0 400.000000 400.000000"
 preserveAspectRatio="xMidYMid meet">

<g transform="translate(0.000000,400.000000) scale(0.100000,-0.100000)"
fill="#000000" stroke="none">
<path d="M1933 3147 c-11 -12 -46 -55 -76 -95 l-56 -73 112 -98 112 -99 43 42
c24 22 59 65 79 94 l36 52 -24 26 c-25 27 -176 156 -195 167 -6 4 -20 -4 -31
-16z"/>
<path d="M2440 2530 c-12 -16 -45 -71 -74 -121 l-54 -91 48 -97 c85 -169 153
-397 166 -553 7 -74 6 -78 -23 -118 -70 -95 -251 -205 -403 -246 -104 -28
-246 -24 -344 9 -176 61 -272 174 -296 349 -16 111 8 228 78 389 l20 46 -35
18 c-41 23 -37 27 -98 -100 -79 -162 -113 -347 -94 -511 16 -146 70 -255 171
-350 224 -211 637 -187 942 56 118 93 154 150 198 310 20 76 23 107 22 285 0
180 -2 211 -26 310 -14 61 -43 155 -63 210 -36 96 -101 235 -109 235 -3 0 -14
-13 -26 -30z"/>
</g>
</svg>
