<svg version="1.0" xmlns="http://www.w3.org/2000/svg"
 width="400.000000pt" height="400.000000pt" viewBox="0 0 400.000000 400.000000"
 preserveAspectRatio="xMidYMid meet">

<g transform="translate(0.000000,400.000000) scale(0.100000,-0.100000)"
fill="#000000" stroke="none">
<path d="M2329 3047 c-25 -29 -58 -69 -74 -90 l-28 -38 39 -32 c21 -18 70 -60
107 -94 38 -35 72 -63 76 -63 17 0 141 148 141 168 0 11 -174 178 -201 192
-12 7 -26 -3 -60 -43z"/>
<path d="M1958 3018 c-24 -29 -56 -68 -71 -86 l-26 -33 42 -37 c23 -20 73 -65
111 -100 l69 -63 25 23 c39 36 112 135 112 151 0 18 -188 197 -206 197 -7 0
-32 -24 -56 -52z"/>
<path d="M2233 2394 c-106 -52 -214 -199 -250 -337 -18 -73 -13 -187 12 -258
53 -152 236 -229 510 -215 66 3 130 8 142 12 18 5 23 0 32 -33 21 -74 15 -97
-38 -155 -58 -64 -199 -166 -293 -214 -85 -43 -199 -81 -297 -100 -102 -20
-289 -19 -365 1 -341 91 -508 456 -392 857 14 46 23 84 22 85 -1 1 -20 5 -41
8 l-40 7 -23 -59 c-56 -146 -82 -290 -82 -463 0 -233 56 -379 199 -520 98 -97
164 -136 296 -176 204 -61 500 -23 736 96 164 83 347 239 394 335 71 147 71
430 -1 695 -46 168 -136 331 -218 394 -95 72 -209 87 -303 40z m142 -225 c57
-16 117 -65 164 -134 47 -69 96 -191 81 -200 -19 -12 -264 -8 -325 5 -130 27
-205 88 -205 166 0 40 5 50 49 94 69 69 150 93 236 69z"/>
</g>
</svg>
