<svg version="1.0" xmlns="http://www.w3.org/2000/svg"
 width="400.000000pt" height="400.000000pt" viewBox="0 0 400.000000 400.000000"
 preserveAspectRatio="xMidYMid meet">

<g transform="translate(0.000000,400.000000) scale(0.100000,-0.100000)"
fill="#000000" stroke="none">
<path d="M2096 2578 c-88 -150 -86 -128 -15 -248 34 -58 89 -160 122 -227 74
-152 81 -196 43 -279 -96 -210 -304 -410 -492 -473 -109 -37 -237 -38 -360 -5
-17 5 -24 0 -32 -26 l-11 -32 82 -38 c174 -80 361 -122 456 -101 78 17 144 55
220 126 77 73 152 177 204 281 68 134 71 150 75 377 5 279 -1 304 -127 549
-53 104 -99 188 -103 188 -4 0 -32 -42 -62 -92z"/>
</g>
</svg>
