<svg version="1.0" xmlns="http://www.w3.org/2000/svg"
 width="400.000000pt" height="400.000000pt" viewBox="0 0 400.000000 400.000000"
 preserveAspectRatio="xMidYMid meet">

<g transform="translate(0.000000,400.000000) scale(0.100000,-0.100000)"
fill="#000000" stroke="none">
<path d="M2935 2605 l-77 -84 26 -108 c14 -59 28 -136 32 -170 6 -60 6 -63
-25 -94 -30 -29 -35 -31 -90 -27 -147 10 -210 123 -182 322 6 44 9 81 7 83 -3
3 -102 -51 -114 -62 -2 -2 -16 -54 -32 -115 -16 -63 -39 -128 -54 -151 -47
-70 -153 -119 -229 -105 -53 10 -82 53 -137 202 -26 71 -62 158 -80 193 l-32
65 -19 -25 c-10 -13 -39 -59 -65 -102 l-47 -78 76 -152 c77 -151 117 -274 117
-356 0 -91 -124 -235 -267 -309 -190 -99 -365 -108 -530 -27 -121 60 -190 154
-221 305 -19 96 -7 209 37 336 18 49 34 96 37 104 3 11 -6 21 -30 32 l-35 17
-21 -36 c-69 -117 -109 -273 -117 -448 -9 -218 40 -370 154 -483 102 -100 217
-142 394 -142 123 0 220 21 331 73 219 102 340 271 365 512 l8 70 80 6 c104 8
179 43 246 116 l48 54 36 -40 c55 -60 144 -101 219 -101 79 1 128 24 188 87
90 98 139 233 139 386 0 88 -25 310 -38 330 -9 15 -24 4 -98 -78z"/>
</g>
</svg>
