<svg version="1.0" xmlns="http://www.w3.org/2000/svg"
 width="400.000000pt" height="400.000000pt" viewBox="0 0 400.000000 400.000000"
 preserveAspectRatio="xMidYMid meet">

<g transform="translate(0.000000,400.000000) scale(0.100000,-0.100000)"
fill="#000000" stroke="none">
<path d="M2334 3568 c-32 -35 -96 -115 -107 -134 -4 -7 41 -53 105 -110 l111
-98 41 45 c23 25 54 65 71 89 l29 43 -102 98 c-56 55 -106 99 -110 99 -4 0
-22 -15 -38 -32z"/>
<path d="M2551 3133 c-55 -68 -68 -90 -58 -99 6 -6 57 -51 111 -100 l99 -88
56 61 c31 33 63 72 70 86 13 24 12 29 -19 64 -41 46 -170 163 -180 163 -5 0
-40 -39 -79 -87z"/>
<path d="M2190 3114 c-39 -47 -70 -90 -68 -94 2 -5 51 -51 109 -103 l107 -95
39 41 c22 23 55 61 73 85 l33 44 -74 75 c-41 41 -91 88 -111 104 l-36 29 -72
-86z"/>
<path d="M2970 2643 c-25 -27 -60 -64 -79 -85 l-33 -36 25 -109 c15 -59 29
-136 33 -170 6 -60 6 -63 -25 -94 -30 -29 -35 -31 -90 -27 -147 10 -210 123
-182 322 6 44 9 81 7 84 -4 3 -97 -48 -114 -63 -2 -1 -16 -53 -32 -115 -17
-62 -39 -128 -51 -146 -43 -69 -157 -124 -230 -110 -57 10 -85 50 -138 197
-26 74 -63 163 -80 198 l-33 65 -19 -25 c-10 -13 -39 -59 -65 -102 l-47 -78
76 -152 c77 -151 117 -274 117 -356 0 -91 -124 -235 -267 -309 -190 -99 -365
-108 -530 -27 -121 60 -190 154 -221 305 -19 96 -7 209 37 336 18 49 34 96 37
104 3 11 -6 21 -30 32 l-35 17 -21 -36 c-69 -117 -109 -273 -117 -448 -9 -218
40 -370 154 -483 102 -100 217 -142 394 -142 123 0 220 21 331 73 219 102 340
271 365 512 l8 70 80 6 c104 8 179 43 246 116 l48 54 36 -40 c55 -60 144 -101
219 -101 79 1 128 24 188 87 90 98 139 233 139 386 0 88 -25 310 -38 330 -8
14 -19 7 -63 -40z"/>
</g>
</svg>
