<svg version="1.0" xmlns="http://www.w3.org/2000/svg"
 width="400.000000pt" height="400.000000pt" viewBox="0 0 400.000000 400.000000"
 preserveAspectRatio="xMidYMid meet">

<g transform="translate(0.000000,400.000000) scale(0.100000,-0.100000)"
fill="#000000" stroke="none">
<path d="M2050 2768 c-34 -40 -66 -80 -71 -89 -7 -13 14 -37 103 -115 l111
-98 45 49 c25 28 56 67 71 89 l25 39 -102 98 c-56 55 -106 99 -112 99 -5 0
-37 -33 -70 -72z"/>
<path d="M1718 2782 c-19 -20 -54 -61 -77 -90 l-41 -54 44 -36 c24 -21 75 -65
114 -100 l70 -62 42 47 c23 27 55 66 70 89 l29 41 -82 79 c-45 44 -93 90 -108
102 l-25 22 -36 -38z"/>
<path d="M2789 2247 c-24 -30 -57 -80 -74 -110 l-29 -55 68 -142 c74 -154 116
-268 116 -312 0 -25 -7 -32 -47 -49 -128 -55 -466 -122 -712 -140 -480 -36
-841 85 -960 322 -58 115 -65 249 -22 409 11 41 21 80 21 87 0 9 -49 33 -70
33 -14 0 -73 -165 -91 -255 -23 -110 -24 -266 -4 -354 65 -273 298 -441 682
-492 113 -15 455 -6 586 15 223 36 477 104 612 166 54 24 64 33 92 86 108 203
81 449 -86 773 l-38 74 -44 -56z"/>
</g>
</svg>
