<svg version="1.0" xmlns="http://www.w3.org/2000/svg"
 width="400.000000pt" height="400.000000pt" viewBox="0 0 400.000000 400.000000"
 preserveAspectRatio="xMidYMid meet">

<g transform="translate(0.000000,400.000000) scale(0.100000,-0.100000)"
fill="#000000" stroke="none">
<path d="M1691 3174 c-98 -88 -105 -127 -76 -451 35 -403 48 -970 25 -1093 -9
-49 -81 -193 -114 -227 -14 -16 -203 -1 -394 31 -73 12 -136 18 -139 13 -7
-12 42 -62 164 -168 89 -77 108 -88 150 -94 26 -3 60 -9 75 -11 l28 -6 -19
-36 c-30 -61 -54 -203 -33 -201 4 0 43 50 87 112 l81 112 189 -3 c627 -10
1064 108 1169 317 42 82 69 215 63 304 -17 252 -239 426 -494 388 -180 -27
-355 -134 -607 -372 -55 -52 -96 -85 -92 -74 4 11 17 54 29 95 21 71 22 94 22
483 l0 408 40 31 c22 16 48 36 59 43 18 13 18 14 -2 42 -62 88 -142 290 -142
358 0 19 -4 36 -9 39 -5 3 -32 -15 -60 -40z m897 -1286 c103 -38 202 -143 217
-230 6 -33 4 -40 -26 -67 -70 -64 -242 -130 -425 -161 -127 -22 -382 -40 -567
-40 -155 0 -155 -10 11 157 309 312 567 423 790 341z"/>
</g>
</svg>
