<svg version="1.0" xmlns="http://www.w3.org/2000/svg"
 width="400.000000pt" height="400.000000pt" viewBox="0 0 400.000000 400.000000"
 preserveAspectRatio="xMidYMid meet">

<g transform="translate(0.000000,400.000000) scale(0.100000,-0.100000)"
fill="#000000" stroke="none">
<path d="M1830 3044 c-30 -36 -62 -76 -70 -90 -14 -23 -13 -25 25 -56 22 -18
70 -61 107 -95 37 -35 72 -63 77 -63 10 0 141 159 141 171 0 12 -202 199 -214
198 -6 0 -36 -29 -66 -65z"/>
<path d="M2090 2658 c-34 -40 -66 -80 -71 -89 -7 -13 14 -37 103 -115 l111
-98 41 45 c23 25 54 65 71 89 l29 43 -102 98 c-56 55 -106 99 -112 99 -5 0
-37 -33 -70 -72z"/>
<path d="M1759 2672 c-52 -54 -109 -128 -109 -139 0 -6 49 -54 109 -107 l110
-96 44 53 c24 28 55 68 70 88 l26 35 -82 80 c-45 44 -93 90 -108 102 l-25 22
-35 -38z"/>
<path d="M1090 2119 c-46 -99 -71 -210 -77 -344 -9 -214 36 -346 161 -470 104
-103 238 -168 438 -212 117 -26 514 -26 673 0 235 38 482 104 620 167 54 24
64 33 92 86 84 161 88 312 14 535 -46 136 -126 302 -144 296 -14 -4 -111 -140
-128 -180 -11 -25 -6 -40 55 -168 74 -153 116 -267 116 -311 0 -25 -7 -32 -47
-49 -27 -11 -106 -36 -178 -54 -292 -75 -592 -106 -829 -87 -377 31 -601 152
-687 370 -32 81 -33 243 -1 359 27 99 27 99 5 106 -10 2 -26 8 -36 12 -14 6
-23 -5 -47 -56z"/>
</g>
</svg>
