<svg version="1.0" xmlns="http://www.w3.org/2000/svg"
 width="400.000000pt" height="400.000000pt" viewBox="0 0 400.000000 400.000000"
 preserveAspectRatio="xMidYMid meet">

<g transform="translate(0.000000,400.000000) scale(0.100000,-0.100000)"
fill="#000000" stroke="none">
<path d="M2010 2801 c-140 -46 -267 -188 -315 -356 -23 -79 -17 -201 14 -270
67 -152 246 -225 483 -197 57 6 114 15 127 18 23 7 24 5 17 -27 -24 -125 -203
-345 -368 -456 -135 -89 -287 -129 -433 -112 -65 7 -147 29 -188 51 -13 7 -20
3 -28 -16 -7 -14 -9 -31 -7 -38 9 -23 156 -100 257 -135 137 -46 274 -61 361
-39 89 23 160 67 247 154 133 134 237 315 280 488 23 95 22 339 -1 449 -50
230 -153 405 -272 465 -51 25 -132 35 -174 21z m71 -243 c59 -20 118 -67 159
-129 47 -68 95 -188 82 -201 -5 -5 -52 -14 -106 -20 -167 -19 -308 20 -381
104 -50 59 -49 112 1 167 68 76 165 107 245 79z"/>
</g>
</svg>
