<svg version="1.0" xmlns="http://www.w3.org/2000/svg"
 width="400.000000pt" height="400.000000pt" viewBox="0 0 400.000000 400.000000"
 preserveAspectRatio="xMidYMid meet">

<g transform="translate(0.000000,400.000000) scale(0.100000,-0.100000)"
fill="#000000" stroke="none">
<path d="M2462 3091 c-173 -64 -378 -232 -471 -385 -119 -199 -136 -415 -39
-518 51 -54 137 -84 333 -118 66 -11 150 -29 187 -40 67 -20 128 -60 128 -85
0 -18 -85 -94 -166 -148 -138 -91 -305 -161 -446 -188 -86 -16 -231 -13 -302
6 -191 51 -331 194 -377 385 -21 88 -14 258 15 375 13 55 21 103 18 107 -4 4
-21 10 -38 14 l-31 6 -31 -95 c-47 -140 -65 -269 -59 -412 10 -212 67 -365
182 -481 71 -71 142 -113 245 -146 65 -20 95 -23 225 -22 134 0 160 3 240 28
179 55 370 163 485 275 136 134 198 368 132 497 -44 86 -103 114 -341 163
-234 49 -305 79 -331 140 -25 62 60 182 205 289 113 83 245 133 299 112 35
-13 79 -85 102 -165 10 -36 24 -65 31 -65 33 0 98 181 90 249 -8 69 -45 160
-82 199 -29 32 -38 36 -91 39 -41 2 -75 -3 -112 -16z"/>
<path d="M2014 1128 c-17 -18 -50 -57 -74 -87 l-44 -54 48 -44 c26 -24 78 -69
113 -101 l66 -57 44 50 c24 28 56 68 71 89 l27 39 -103 98 c-57 55 -107 99
-111 99 -4 0 -21 -15 -37 -32z"/>
<path d="M1639 1093 c-20 -21 -53 -59 -73 -85 l-37 -47 38 -34 c145 -130 188
-165 196 -160 18 11 127 155 127 168 0 16 -187 195 -204 195 -7 0 -28 -17 -47
-37z"/>
</g>
</svg>
