<?xml version="1.0" encoding="UTF-8"?>
<svg xmlns="http://www.w3.org/2000/svg" viewBox="0 0 200 200" width="200" height="200">
  <defs>
    <!-- Zellige tile pattern: 8-pointed star grid, 50x50 repeat unit -->
    <pattern id="zellige" x="0" y="0" width="50" height="50" patternUnits="userSpaceOnUse">

      <!-- Grout background -->
      <rect width="50" height="50" fill="hsl(200, 25%, 85%)"/>

      <!-- ── 8-POINTED STAR (center of tile unit at 25,25) ──────────────────
           Two overlapping squares, each inset 1px from grout edge.
           Square 1: axis-aligned  Square 2: rotated 45°
           Together they form the classic 8-pointed star.
      -->

      <!-- Axis-aligned square of the star -->
      <polygon
        points="17,21 33,21 33,29 17,29"
        fill="hsl(200, 100%, 25%)"
      />
      <!-- Vertical bar of the star -->
      <polygon
        points="21,17 29,17 29,33 21,33"
        fill="hsl(200, 100%, 25%)"
      />
      <!-- Diagonal square (rotated 45°) — gives the 8 points -->
      <polygon
        points="25,15.5 34.5,25 25,34.5 15.5,25"
        fill="hsl(200, 100%, 25%)"
      />

      <!-- ── KITE / ARROW SHAPES filling the 4 inter-star gaps ─────────────
           These sit in the cardinal gaps between adjacent star units.
           Each kite points toward the star center.
      -->

      <!-- Top kite (pointing down into star) -->
      <polygon
        points="25,1 30,13 25,15 20,13"
        fill="hsl(200, 30%, 40%)"
      />
      <!-- Bottom kite (pointing up into star) -->
      <polygon
        points="25,49 30,37 25,35 20,37"
        fill="hsl(200, 30%, 40%)"
      />
      <!-- Left kite (pointing right into star) -->
      <polygon
        points="1,25 13,20 15,25 13,30"
        fill="hsl(200, 30%, 40%)"
      />
      <!-- Right kite (pointing left into star) -->
      <polygon
        points="49,25 37,20 35,25 37,30"
        fill="hsl(200, 30%, 40%)"
      />

      <!-- ── DIAGONAL KITES in the 4 corner inter-star gaps ────────────────
           These sit at the 45° gaps between diagonally adjacent stars.
      -->

      <!-- Top-left corner kite -->
      <polygon
        points="1,1 13,7 8,13 1,10"
        fill="hsl(200, 20%, 70%)"
      />
      <!-- Top-right corner kite -->
      <polygon
        points="49,1 37,7 42,13 49,10"
        fill="hsl(200, 20%, 70%)"
      />
      <!-- Bottom-left corner kite -->
      <polygon
        points="1,49 13,43 8,37 1,40"
        fill="hsl(200, 20%, 70%)"
      />
      <!-- Bottom-right corner kite -->
      <polygon
        points="49,49 37,43 42,37 49,40"
        fill="hsl(200, 20%, 70%)"
      />

      <!-- ── SMALL SQUARE ACCENT TILES at mid-edge intersections ───────────
           These sit where 4 kite tips meet between 4 adjacent star units.
      -->

      <!-- Top-center accent (between top kite tips of vertically adjacent units) -->
      <rect x="22.5" y="-1.5" width="5" height="5" fill="hsl(200, 25%, 92%)"/>
      <!-- Bottom-center accent -->
      <rect x="22.5" y="46.5" width="5" height="5" fill="hsl(200, 25%, 92%)"/>
      <!-- Left-center accent -->
      <rect x="-1.5" y="22.5" width="5" height="5" fill="hsl(200, 25%, 92%)"/>
      <!-- Right-center accent -->
      <rect x="46.5" y="22.5" width="5" height="5" fill="hsl(200, 25%, 92%)"/>

      <!-- ── CORNER ACCENT SQUARES at 4 tile-corner intersections ──────────
           These appear where 4 tile corners meet.
      -->
      <rect x="-1.5" y="-1.5" width="5" height="5" fill="hsl(200, 25%, 92%)"/>
      <rect x="46.5" y="-1.5" width="5" height="5" fill="hsl(200, 25%, 92%)"/>
      <rect x="-1.5" y="46.5" width="5" height="5" fill="hsl(200, 25%, 92%)"/>
      <rect x="46.5" y="46.5" width="5" height="5" fill="hsl(200, 25%, 92%)"/>

    </pattern>

    <!-- Circular clip to make it icon-shaped -->
    <clipPath id="circle-clip">
      <circle cx="100" cy="100" r="97"/>
    </clipPath>
  </defs>

  <!-- Outer ring / border -->
  <circle cx="100" cy="100" r="99" fill="hsl(200, 100%, 25%)"/>
  <circle cx="100" cy="100" r="97" fill="hsl(200, 25%, 85%)"/>

  <!-- Tiled mosaic fill, clipped to circle -->
  <rect width="200" height="200" fill="url(#zellige)" clip-path="url(#circle-clip)"/>

  <!-- Inner decorative border ring -->
  <circle cx="100" cy="100" r="97" fill="none" stroke="hsl(200, 100%, 25%)" stroke-width="2" opacity="0.4"/>
  <circle cx="100" cy="100" r="92" fill="none" stroke="hsl(200, 30%, 40%)" stroke-width="1" opacity="0.3"/>
</svg>
